<?xml version="1.0"?>
<svg xmlns="http://www.w3.org/2000/svg" xmlns:xlink="http://www.w3.org/1999/xlink" xmlns:svgjs="http://svgjs.com/svgjs" version="1.1" width="512" height="512" x="0" y="0" viewBox="0 0 612 612" style="enable-background:new 0 0 512 512" xml:space="preserve" class=""><g>
<g xmlns="http://www.w3.org/2000/svg">
	<g id="_x36__40_">
		<g>
			<path d="M153,76.5c-42.247,0-76.5,34.253-76.5,76.5s34.253,76.5,76.5,76.5s76.5-34.253,76.5-76.5S195.247,76.5,153,76.5z      M153,191.25c-21.133,0-38.25-17.117-38.25-38.25s17.117-38.25,38.25-38.25s38.25,17.136,38.25,38.25S174.133,191.25,153,191.25z      M535.5,0h-459C34.253,0,0,34.253,0,76.5v459C0,577.747,34.253,612,76.5,612h459c42.247,0,76.5-34.253,76.5-76.5v-459     C612,34.253,577.747,0,535.5,0z M76.5,573.75c-21.133,0-38.25-17.136-38.25-38.25v-17.978l151.948-136.074L382.52,573.75H76.5z      M573.75,535.5c0,21.114-17.117,38.25-38.25,38.25h-98.838L295.749,430.981L459,267.731l114.75,114.75V535.5z M573.75,327.573     L459,210.375L268.859,403.748l-77.609-78.623l-153,140.301V76.5c0-21.114,17.117-38.25,38.25-38.25h459     c21.133,0,38.25,17.136,38.25,38.25V327.573z" fill="#0087ff" data-original="#000000" style=""/>
		</g>
	</g>
</g>
<g xmlns="http://www.w3.org/2000/svg">
</g>
<g xmlns="http://www.w3.org/2000/svg">
</g>
<g xmlns="http://www.w3.org/2000/svg">
</g>
<g xmlns="http://www.w3.org/2000/svg">
</g>
<g xmlns="http://www.w3.org/2000/svg">
</g>
<g xmlns="http://www.w3.org/2000/svg">
</g>
<g xmlns="http://www.w3.org/2000/svg">
</g>
<g xmlns="http://www.w3.org/2000/svg">
</g>
<g xmlns="http://www.w3.org/2000/svg">
</g>
<g xmlns="http://www.w3.org/2000/svg">
</g>
<g xmlns="http://www.w3.org/2000/svg">
</g>
<g xmlns="http://www.w3.org/2000/svg">
</g>
<g xmlns="http://www.w3.org/2000/svg">
</g>
<g xmlns="http://www.w3.org/2000/svg">
</g>
<g xmlns="http://www.w3.org/2000/svg">
</g>
</g></svg>
